# xmcd
#
# Track frame offsets:
#	150
#	13817
#	31412
#	42832
#	53895
#	68860
#	79082
#	95800
#	105840
#	115865
#	127704
#	138197
#	149585
#
# Disc length: 2133
#
# Revision: 2
# Processed by: cddbd v1.5.1PL0 Copyright (c) Steve Scherf et al.
# Submitted via: CDex 1.30
# Normalized: r1:TRMNUM
#
DISCID=ab08530d
DTITLE=New Tradition - Following The Son
DYEAR=2000
DGENRE=Country
TTITLE0=Cryin' Holy
TTITLE1=The Lighthouse
TTITLE2=Are You Washed In the Blood
TTITLE3=This Little Light of Mine
TTITLE4=Tramp On The Street
TTITLE5=At Calvary
TTITLE6=I Saw The Light
TTITLE7=A Beautiful Life
TTITLE8=True Love Stands
TTITLE9=Take Your Shoes Off Moses
TTITLE10=Old Time Religion
TTITLE11=In The Garden
TTITLE12=I'll Fly Away
EXTD=\nYEAR: 2000  ID3G:   2
EXTT0=
EXTT1=
EXTT2=
EXTT3=
EXTT4=
EXTT5=
EXTT6=
EXTT7=
EXTT8=
EXTT9=
EXTT10=
EXTT11=
EXTT12=
PLAYORDER=
